<svg xmlns="http://www.w3.org/2000/svg" aria-hidden="true" style="position:absolute;width:0;height:0;overflow:hidden">
  <defs>
    <symbol id="icon-Vector-6" viewBox="0 0 32 32">
      <path fill="#fff" d="M28.174 15.348a12.127 12.127 0 0 0-2.397-6.63c-.438.472-.906.915-1.402 1.326a20.034 20.034 0 0 1-5.048 3.063c.255.533.488 1.05.693 1.538v.005c.058.136.114.273.168.411 2.307-.259 4.739-.165 7.096.154.314.043.609.088.89.134zM13.873 3.995a70.37 70.37 0 0 1 4.102 6.507c1.864-.734 3.404-1.661 4.645-2.693.431-.355.836-.739 1.213-1.15a12.144 12.144 0 0 0-7.832-2.85c-.713 0-1.425.061-2.127.184v.002zm-9.678 8.953a44.856 44.856 0 0 0 3.109-.187 47.915 47.915 0 0 0 7.409-1.253 83.114 83.114 0 0 0-4.114-6.441 12.22 12.22 0 0 0-6.403 7.881zm2.332 10.724a21.732 21.732 0 0 1 2.4-2.894c2.216-2.27 4.831-4.038 7.857-5.013l.094-.027a36.48 36.48 0 0 0-.725-1.516c-2.798.815-5.745 1.324-8.681 1.588-1.432.13-2.717.186-3.662.195a12.138 12.138 0 0 0 2.718 7.668h-.002zm14.052 3.627a54.756 54.756 0 0 0-2.487-8.699c-3.051 1.108-5.481 2.728-7.36 4.66a14.885 14.885 0 0 0-2.007 2.522A12.131 12.131 0 0 0 16 28.191a12.161 12.161 0 0 0 4.579-.888V27.3zm2.854-1.638c2.379-1.829 4-4.471 4.552-7.421a18.586 18.586 0 0 0-1.897-.36 18.328 18.328 0 0 0-4.846-.05 59.89 59.89 0 0 1 2.191 7.832v-.001zM16 31.238C7.584 31.238.762 24.416.762 16S7.584.762 16 .762 31.238 7.584 31.238 16 24.416 31.238 16 31.238z" style="fill:var(--color1, #fff)"/>
    </symbol>
    <symbol id="icon-Be" viewBox="0 0 32 32">
      <path fill="#fff" d="M9.924 7.133c.852 0 1.64.067 2.36.264.653.12 1.277.366 1.836.725.525.329.919.792 1.18 1.385.263.593.393 1.32.393 2.111 0 .924-.196 1.715-.655 2.308-.393.595-1.049 1.121-1.836 1.517 1.115.331 1.967.924 2.491 1.715.525.792.853 1.781.853 2.903 0 .924-.197 1.715-.525 2.375s-.852 1.253-1.443 1.649a6.81 6.81 0 0 1-2.097.923c-.787.199-1.573.331-2.36.331H1.333V7.134h8.591zm-.525 7.387c.721 0 1.312-.197 1.771-.527s.656-.924.656-1.649c0-.396-.067-.792-.197-1.055-.131-.264-.328-.463-.589-.66-.263-.132-.525-.264-.853-.329-.328-.067-.655-.067-1.049-.067H5.335v4.288L9.4 14.52zm.197 7.784c.393 0 .787-.067 1.115-.132.331-.063.644-.198.917-.396.267-.193.491-.44.656-.725.131-.329.263-.725.263-1.187 0-.924-.263-1.584-.787-2.045-.525-.396-1.247-.593-2.099-.593H5.333v5.08l4.263-.001zm12.656-.067c.524.528 1.311.792 2.36.792.721 0 1.377-.197 1.901-.527.525-.396.853-.792.984-1.188h3.213c-.525 1.583-1.312 2.704-2.36 3.429-1.051.66-2.296 1.056-3.804 1.056a7.662 7.662 0 0 1-2.82-.528 5.247 5.247 0 0 1-2.099-1.451 5.244 5.244 0 0 1-1.311-2.177c-.328-.857-.46-1.78-.46-2.836 0-.989.132-1.912.46-2.771a7.115 7.115 0 0 1 1.376-2.243c.591-.593 1.312-1.12 2.099-1.451a7.324 7.324 0 0 1 2.755-.528c1.115 0 2.099.199 2.951.66.853.461 1.508.989 2.033 1.781a8.017 8.017 0 0 1 1.18 2.507c.131.923.196 1.847.131 2.901h-9.508c0 1.056.393 2.045.919 2.573v-.001zm4.131-6.925c-.459-.461-1.18-.725-2.033-.725a3.13 3.13 0 0 0-1.443.329c-.393.199-.655.463-.917.727a1.768 1.768 0 0 0-.459.923c-.067.331-.132.593-.132.857H27.3c-.131-.989-.459-1.648-.917-2.111zm-5.771-6.925h7.344v1.781h-7.343V8.387h-.001z" style="fill:var(--color1, #fff)"/>
    </symbol>
    <symbol id="icon-arrow-right" viewBox="0 0 32 32">
      <path fill="#fff" d="M25.6 16 12.022 29.578 7.497 25.05 16.55 16 7.497 6.95l4.525-4.528L25.6 16z" style="fill:var(--color1, #fff)"/>
    </symbol>
    <symbol id="icon-arrow-left" viewBox="0 0 32 32">
      <path fill="#fff" d="M6.4 16 19.978 2.422l4.525 4.528L15.45 16l9.053 9.05-4.525 4.528L6.4 16z" style="fill:var(--color1, #fff)"/>
    </symbol>
    <symbol id="icon-find" viewBox="0 0 32 32">
      <path fill="#fff" d="m23.318 21.261 6.23 6.228-2.058 2.058-6.228-6.23a13.032 13.032 0 0 1-8.17 2.864C5.866 26.181.001 20.316.001 13.09S5.866-.001 13.092-.001c7.226 0 13.091 5.865 13.091 13.091a13.032 13.032 0 0 1-2.864 8.17zM20.4 20.182a10.149 10.149 0 0 0 2.873-7.091A10.18 10.18 0 0 0 13.091 2.909 10.179 10.179 0 0 0 2.909 13.091a10.18 10.18 0 0 0 10.182 10.182 10.149 10.149 0 0 0 7.091-2.873l.218-.218z" opacity=".3" style="fill:var(--color1, #fff)"/>
    </symbol>
    <symbol id="icon-arrow-down" viewBox="0 0 32 32">
      <path fill="#fff" d="M16 25.6 2.422 12.022 6.95 7.497 16 16.55l9.05-9.053 4.528 4.525L16 25.6z" style="fill:var(--color1, #fff)"/>
    </symbol>
    <symbol id="icon-youtube" viewBox="0 0 32 32">
      <path fill="#fff" d="M28.724 8.664c.609 2.376.609 7.336.609 7.336s0 4.96-.609 7.336c-.339 1.313-1.329 2.347-2.584 2.696-2.279.635-10.14.635-10.14.635s-7.857 0-10.14-.635c-1.26-.355-2.249-1.387-2.584-2.696C2.667 20.96 2.667 16 2.667 16s0-4.96.609-7.336c.339-1.313 1.329-2.347 2.584-2.696C8.143 5.333 16 5.333 16 5.333s7.861 0 10.14.635c1.26.355 2.249 1.387 2.584 2.696zM13.333 20.667l8-4.667-8-4.667v9.333z" style="fill:var(--color1, #fff)"/>
    </symbol>
    <symbol id="icon-instagram" viewBox="0 0 32 32">
      <path fill="#fff" d="M16 2.667c3.623 0 4.075.013 5.496.08 1.42.067 2.387.289 3.237.62a6.51 6.51 0 0 1 2.363 1.537 6.538 6.538 0 0 1 1.537 2.363c.329.849.553 1.817.62 3.237.063 1.421.08 1.873.08 5.496s-.013 4.075-.08 5.496c-.067 1.42-.291 2.387-.62 3.237a6.516 6.516 0 0 1-1.537 2.363 6.55 6.55 0 0 1-2.363 1.537c-.849.329-1.817.553-3.237.62-1.421.063-1.873.08-5.496.08s-4.075-.013-5.496-.08c-1.42-.067-2.387-.291-3.237-.62a6.53 6.53 0 0 1-2.363-1.537 6.53 6.53 0 0 1-1.537-2.363c-.331-.849-.553-1.817-.62-3.237-.063-1.421-.08-1.873-.08-5.496s.013-4.075.08-5.496c.067-1.421.289-2.387.62-3.237a6.516 6.516 0 0 1 1.537-2.363 6.53 6.53 0 0 1 2.363-1.537c.851-.331 1.816-.553 3.237-.62 1.421-.063 1.873-.08 5.496-.08zm0 6.666a6.67 6.67 0 0 0-4.714 11.381 6.67 6.67 0 0 0 9.428 0A6.668 6.668 0 0 0 16 9.333zM24.667 9a1.663 1.663 0 0 0-1.666-1.667 1.665 1.665 0 0 0-1.179 2.845A1.667 1.667 0 0 0 24.667 9zM16 12a4.003 4.003 0 0 1 4 4 4.003 4.003 0 0 1-4 4 4.003 4.003 0 0 1-4-4 4.003 4.003 0 0 1 4-4z" style="fill:var(--color1, #fff)"/>
    </symbol>
    <symbol id="icon-twiter" viewBox="0 0 32 32">
      <path fill="#fff" d="M29.549 7.541c-1.018.45-2.097.746-3.203.877a5.593 5.593 0 0 0 2.453-3.085 11.118 11.118 0 0 1-3.541 1.353 5.576 5.576 0 0 0-9.501 5.085A15.826 15.826 0 0 1 4.264 5.944a5.557 5.557 0 0 0-.755 2.804c0 1.933.984 3.641 2.48 4.641a5.562 5.562 0 0 1-2.525-.697v.069a5.578 5.578 0 0 0 4.473 5.468 5.603 5.603 0 0 1-2.52.096 5.58 5.58 0 0 0 5.209 3.873 11.198 11.198 0 0 1-8.254 2.309 15.774 15.774 0 0 0 8.547 2.507c10.257 0 15.867-8.497 15.867-15.867 0-.24-.007-.483-.017-.72a11.334 11.334 0 0 0 2.783-2.887l-.001-.001z" style="fill:var(--color1, #fff)"/>
    </symbol>
    <symbol id="icon-facebook" viewBox="0 0 32 32">
      <path fill="#fff" d="M18.667 18H22l1.333-5.333h-4.667V10c0-1.373 0-2.667 2.667-2.667h2v-4.48c-.435-.057-2.076-.187-3.809-.187-3.62 0-6.191 2.209-6.191 6.267v3.733h-4v5.333h4v11.333h5.333V17.999z" style="fill:var(--color1, #fff)"/>
    </symbol>
    <symbol id="icon-clock" viewBox="0 0 32 32">
      <path d="M16 29.333C8.636 29.333 2.667 23.364 2.667 16S8.636 2.667 16 2.667 29.333 8.636 29.333 16 23.364 29.333 16 29.333zm0-2.666a10.666 10.666 0 1 0 0-21.333 10.666 10.666 0 0 0 0 21.333zM17.333 16h5.333v2.667h-8V9.334h2.667v6.667z"/>
    </symbol>
    <symbol id="icon-c" viewBox="0 0 32 32">
      <path d="M6 13.333a4.676 4.676 0 0 1-3.3-1.367 4.68 4.68 0 0 1-1.367-3.3 4.676 4.676 0 0 1 1.367-3.3A4.68 4.68 0 0 1 6 3.999a4.667 4.667 0 0 1 0 9.334zm0-2.666a2 2 0 1 0-.001-4.001A2 2 0 0 0 6 10.667zm23.333 2.666h-2.667a5.334 5.334 0 0 0-10.666 0V20a5.334 5.334 0 0 0 10.666 0h2.667a8 8 0 1 1-16 0v-6.667a8 8 0 1 1 16 0z"/>
    </symbol>

     <symbol id="icon-Vector" viewBox="0 0 37 32">
<path d="M9.269 19.81c-0.22-1.311-0.152-2.653 0.199-3.935s0.978-2.471 1.837-3.486c0.858-1.015 1.927-1.83 3.133-2.389s2.518-0.849 3.847-0.849c1.329 0 2.642 0.29 3.847 0.849s2.275 1.374 3.133 2.389 1.485 2.204 1.837 3.486c0.352 1.282 0.42 2.624 0.2 3.935h-18.033zM3.048 22.857h15.238v3.048h-15.238v-3.048zM21.333 22.857h12.191v3.048h-12.191v-3.048zM24.381 28.952h6.095v3.048h-6.095v-3.048zM6.095 28.952h15.238v3.048h-15.238v-3.048zM16.762 1.524h3.048v4.571h-3.048v-4.571zM5.356 7.511l2.155-2.155 3.232 3.232-2.155 2.155-3.232-3.232zM29.059 5.356l2.154 2.155-3.232 3.232-2.154-2.155 3.232-3.232zM35.048 16.762v3.048h-4.571v-3.048h4.571zM6.095 16.762v3.048h-4.571v-3.048h4.571z"></path>
</symbol>
  </defs>
</svg>
